<?xml version="1.0" encoding="utf-8" standalone="no"?>
<!DOCTYPE svg PUBLIC "-//W3C//DTD SVG 1.1//EN"
  "http://www.w3.org/Graphics/SVG/1.1/DTD/svg11.dtd">
<svg xmlns:xlink="http://www.w3.org/1999/xlink" width="481.980312pt" height="338.466391pt" viewBox="0 0 481.980312 338.466391" xmlns="http://www.w3.org/2000/svg" version="1.1">
 <metadata>
  <rdf:RDF xmlns:dc="http://purl.org/dc/elements/1.1/" xmlns:cc="http://creativecommons.org/ns#" xmlns:rdf="http://www.w3.org/1999/02/22-rdf-syntax-ns#">
   <cc:Work>
    <dc:type rdf:resource="http://purl.org/dc/dcmitype/StillImage"/>
    <dc:date>2026-09-19T22:59:57.749379</dc:date>
    <dc:format>image/svg+xml</dc:format>
    <dc:creator>
     <cc:Agent>
      <dc:title>Matplotlib v3.11.2, https://matplotlib.org/</dc:title>
     </cc:Agent>
    </dc:creator>
   </cc:Work>
  </rdf:RDF>
 </metadata>
 <defs>
  <style type="text/css">*{stroke-linejoin: round; stroke-linecap: butt}</style>
 </defs>
 <g id="figure_1">
  <g id="patch_1">
   <path d="M 0 338.466391 
L 481.980312 338.466391 
L 481.980312 0 
L 0 0 
z
" style="fill: #ffffff"/>
  </g>
  <g id="axes_1">
   <g id="patch_2">
    <path d="M 50.220312 298.644 
L 474.780312 298.644 
L 474.780312 32.016 
L 50.220312 32.016 
z
" style="fill: #ffffff"/>
   </g>
   <g id="patch_3">
    <path d="M 69.518494 2486.526489 
L 116.301965 2486.526489 
L 116.301965 109.864706 
L 69.518494 109.864706 
z
" clip-path="url(#p150f44511d)" style="fill: #2b5c8f; opacity: 0.95"/>
   </g>
   <g id="patch_4">
    <path d="M 215.716841 2486.526489 
L 262.500313 2486.526489 
L 262.500313 114.310086 
L 215.716841 114.310086 
z
" clip-path="url(#p150f44511d)" style="fill: #2b5c8f; opacity: 0.95"/>
   </g>
   <g id="patch_5">
    <path d="M 361.915189 2486.526489 
L 408.69866 2486.526489 
L 408.69866 120.978156 
L 361.915189 120.978156 
z
" clip-path="url(#p150f44511d)" style="fill: #2b5c8f; opacity: 0.95"/>
   </g>
   <g id="patch_6">
    <path d="M 116.301965 2486.526489 
L 163.085436 2486.526489 
L 163.085436 142.874416 
L 116.301965 142.874416 
z
" clip-path="url(#p150f44511d)" style="fill: #e66101; opacity: 0.95"/>
   </g>
   <g id="patch_7">
    <path d="M 262.500313 2486.526489 
L 309.283784 2486.526489 
L 309.283784 179.683122 
L 262.500313 179.683122 
z
" clip-path="url(#p150f44511d)" style="fill: #e66101; opacity: 0.95"/>
   </g>
   <g id="patch_8">
    <path d="M 408.69866 2486.526489 
L 455.482131 2486.526489 
L 455.482131 201.435664 
L 408.69866 201.435664 
z
" clip-path="url(#p150f44511d)" style="fill: #e66101; opacity: 0.95"/>
   </g>
   <g id="matplotlib.axis_1">
    <g id="xtick_1">
     <g id="line2d_1">
      <defs>
       <path id="m43871099d7" d="M 0 0 
L 0 3.5 
" style="stroke: #000000; stroke-width: 0.8"/>
      </defs>
      <g>
       <use xlink:href="#m43871099d7" x="116.301965" y="298.644" style="stroke: #000000; stroke-width: 0.8"/>
      </g>
     </g>
     <g id="text_1">
      <!-- B_full -->
      <g transform="translate(104.409153 315.79) scale(0.095 -0.095)">
       <defs>
        <path id="Sarabun-Bold-1e" d="M 435 4480 
L 1888 4480 
Q 2662 4480 3065 4195 
Q 3469 3910 3469 3360 
Q 3469 3040 3321 2809 
Q 3174 2579 2861 2419 
L 2861 2400 
Q 3270 2246 3452 1990 
Q 3635 1734 3635 1318 
Q 3635 678 3260 339 
Q 2886 0 2170 0 
L 435 0 
L 435 4480 
z
M 1971 2694 
Q 2240 2694 2390 2844 
Q 2541 2995 2541 3264 
Q 2541 3526 2371 3648 
Q 2202 3770 1850 3770 
L 1357 3770 
L 1357 2694 
L 1971 2694 
z
M 2099 710 
Q 2400 710 2563 883 
Q 2726 1056 2726 1376 
Q 2726 1715 2528 1868 
Q 2330 2022 1888 2022 
L 1357 2022 
L 1357 710 
L 2099 710 
z
" transform="scale(0.015625)"/>
        <path id="Sarabun-Bold-243" d="M 0 -1427 
L 2291 -1427 
L 2291 -2042 
L 0 -2042 
L 0 -1427 
z
" transform="scale(0.015625)"/>
        <path id="Sarabun-Bold-10e" d="M 595 2643 
L 70 2643 
L 70 3200 
L 595 3200 
L 595 3584 
Q 595 4051 889 4320 
Q 1184 4589 1696 4589 
Q 1933 4589 2137 4515 
Q 2342 4442 2470 4314 
L 2189 3827 
Q 2112 3898 2009 3936 
Q 1907 3974 1805 3974 
Q 1619 3974 1513 3852 
Q 1408 3731 1408 3520 
L 1408 3200 
L 2310 3200 
L 2310 2643 
L 1408 2643 
L 1408 0 
L 595 0 
L 595 2643 
z
" transform="scale(0.015625)"/>
        <path id="Sarabun-Bold-179" d="M 1427 -64 
Q 877 -64 592 307 
Q 307 678 307 1395 
L 307 3200 
L 1126 3200 
L 1126 1389 
Q 1126 979 1260 787 
Q 1395 595 1677 595 
Q 2016 595 2233 854 
Q 2451 1114 2451 1498 
L 2451 3200 
L 3270 3200 
L 3270 813 
Q 3270 486 3322 0 
L 2547 0 
Q 2496 288 2490 563 
L 2477 563 
Q 2362 275 2077 105 
Q 1792 -64 1427 -64 
z
" transform="scale(0.015625)"/>
        <path id="Sarabun-Bold-12f" d="M 1203 -64 
Q 794 -64 579 157 
Q 365 378 365 794 
L 365 4749 
L 1178 4749 
L 1178 781 
Q 1178 640 1251 573 
Q 1325 506 1472 506 
Q 1619 506 1837 589 
L 1958 154 
Q 1670 -64 1203 -64 
z
" transform="scale(0.015625)"/>
       </defs>
       <use xlink:href="#Sarabun-Bold-1e"/>
       <use xlink:href="#Sarabun-Bold-243" transform="translate(60.59375 0)"/>
       <use xlink:href="#Sarabun-Bold-10e" transform="translate(96.390625 0)"/>
       <use xlink:href="#Sarabun-Bold-179" transform="translate(134.09375 0)"/>
       <use xlink:href="#Sarabun-Bold-12f" transform="translate(190.1875 0)"/>
       <use xlink:href="#Sarabun-Bold-12f" transform="translate(220.28125 0)"/>
      </g>
      <!-- (Standard) -->
      <g transform="translate(93.439622 328.967094) scale(0.095 -0.095)">
       <defs>
        <path id="Sarabun-Bold-234" d="M 1280 -390 
Q 774 38 515 700 
Q 256 1363 256 2202 
Q 256 3046 515 3705 
Q 774 4365 1280 4800 
L 2118 4800 
Q 1670 4422 1414 3724 
Q 1158 3027 1158 2202 
Q 1158 1376 1417 681 
Q 1677 -13 2118 -390 
L 1280 -390 
z
" transform="scale(0.015625)"/>
        <path id="Sarabun-Bold-94" d="M 1754 -64 
Q 1248 -64 841 141 
Q 435 346 179 730 
L 710 1242 
Q 922 992 1222 832 
Q 1523 672 1786 672 
Q 2080 672 2259 806 
Q 2438 941 2438 1158 
Q 2438 1318 2380 1420 
Q 2323 1523 2163 1628 
Q 2003 1734 1638 1914 
Q 1158 2150 883 2355 
Q 608 2560 477 2800 
Q 346 3040 346 3360 
Q 346 3712 531 3981 
Q 717 4250 1056 4397 
Q 1395 4544 1837 4544 
Q 2323 4544 2697 4358 
Q 3072 4173 3245 3846 
L 2662 3411 
Q 2342 3808 1875 3808 
Q 1581 3808 1421 3693 
Q 1261 3578 1261 3366 
Q 1261 3238 1341 3136 
Q 1421 3034 1632 2912 
Q 1843 2790 2266 2592 
Q 2675 2400 2908 2208 
Q 3142 2016 3244 1779 
Q 3347 1542 3347 1216 
Q 3347 832 3152 541 
Q 2957 250 2595 93 
Q 2234 -64 1754 -64 
z
" transform="scale(0.015625)"/>
        <path id="Sarabun-Bold-171" d="M 1702 -64 
Q 1210 -64 934 205 
Q 659 474 659 960 
L 659 2592 
L 77 2592 
L 77 3200 
L 659 3200 
L 659 4026 
L 1453 4256 
L 1478 4256 
L 1478 3200 
L 2406 3200 
L 2406 2592 
L 1478 2592 
L 1478 1082 
Q 1478 806 1606 678 
Q 1734 550 1997 550 
Q 2246 550 2464 627 
L 2502 70 
Q 2214 -64 1702 -64 
z
" transform="scale(0.015625)"/>
        <path id="Sarabun-Bold-d3" d="M 1286 -64 
Q 973 -64 723 67 
Q 474 198 333 432 
Q 192 666 192 954 
Q 192 1446 582 1708 
Q 973 1971 1696 1971 
L 2195 1971 
L 2195 2106 
Q 2195 2362 2044 2499 
Q 1894 2637 1619 2637 
Q 1331 2637 1068 2534 
Q 806 2432 640 2253 
L 282 2726 
Q 544 2976 902 3120 
Q 1261 3264 1645 3264 
Q 2285 3264 2649 2963 
Q 3014 2662 3014 2131 
L 3014 672 
Q 3014 525 3036 326 
Q 3059 128 3091 0 
L 2368 0 
Q 2330 83 2310 163 
Q 2291 243 2278 384 
L 2266 384 
Q 1901 -64 1286 -64 
z
M 1485 550 
Q 1792 550 1993 707 
Q 2195 864 2195 1107 
L 2195 1427 
L 1670 1427 
Q 1344 1427 1168 1305 
Q 992 1184 992 954 
Q 992 762 1123 656 
Q 1254 550 1485 550 
z
" transform="scale(0.015625)"/>
        <path id="Sarabun-Bold-13a" d="M 301 2355 
Q 301 2938 275 3200 
L 1043 3200 
Q 1075 2931 1075 2643 
L 1094 2643 
Q 1210 2925 1501 3094 
Q 1792 3264 2150 3264 
Q 2701 3264 2982 2893 
Q 3264 2522 3264 1798 
L 3264 0 
L 2451 0 
L 2451 1805 
Q 2451 2221 2316 2413 
Q 2182 2605 1888 2605 
Q 1549 2605 1334 2365 
Q 1120 2125 1120 1747 
L 1120 0 
L 301 0 
L 301 2355 
z
" transform="scale(0.015625)"/>
        <path id="Sarabun-Bold-f5" d="M 1523 -64 
Q 896 -64 534 393 
Q 173 851 173 1651 
Q 173 2138 339 2502 
Q 506 2867 816 3065 
Q 1126 3264 1542 3264 
Q 1824 3264 2038 3168 
Q 2253 3072 2413 2874 
L 2426 2874 
L 2426 4749 
L 3238 4749 
L 3238 851 
Q 3238 186 3258 0 
L 2490 0 
Q 2483 109 2483 422 
L 2470 422 
Q 2323 205 2064 70 
Q 1805 -64 1523 -64 
z
M 1683 563 
Q 2022 563 2224 758 
Q 2426 954 2426 1274 
L 2426 1933 
Q 2426 2246 2214 2451 
Q 2003 2656 1683 2656 
Q 1344 2656 1165 2393 
Q 986 2131 986 1638 
Q 986 1120 1165 841 
Q 1344 563 1683 563 
z
" transform="scale(0.015625)"/>
        <path id="Sarabun-Bold-161" d="M 346 2419 
Q 346 2963 326 3200 
L 1101 3200 
Q 1126 2950 1126 2637 
L 1126 2573 
L 1152 2573 
Q 1274 2886 1581 3075 
Q 1888 3264 2285 3264 
Q 2362 3264 2477 3245 
L 2477 2598 
Q 2451 2611 2323 2611 
Q 2016 2611 1750 2444 
Q 1485 2278 1325 2000 
Q 1165 1722 1165 1402 
L 1165 0 
L 346 0 
L 346 2419 
z
" transform="scale(0.015625)"/>
        <path id="Sarabun-Bold-235" d="M 147 -390 
Q 589 -13 848 681 
Q 1107 1376 1107 2202 
Q 1107 3027 851 3724 
Q 595 4422 147 4800 
L 986 4800 
Q 1491 4365 1750 3705 
Q 2010 3046 2010 2202 
Q 2010 1363 1750 700 
Q 1491 38 986 -390 
L 147 -390 
z
" transform="scale(0.015625)"/>
       </defs>
       <use xlink:href="#Sarabun-Bold-234"/>
       <use xlink:href="#Sarabun-Bold-94" transform="translate(35.40625 0)"/>
       <use xlink:href="#Sarabun-Bold-171" transform="translate(90.5 0)"/>
       <use xlink:href="#Sarabun-Bold-d3" transform="translate(132.5 0)"/>
       <use xlink:href="#Sarabun-Bold-13a" transform="translate(185.40625 0)"/>
       <use xlink:href="#Sarabun-Bold-f5" transform="translate(241.703125 0)"/>
       <use xlink:href="#Sarabun-Bold-d3" transform="translate(297.5 0)"/>
       <use xlink:href="#Sarabun-Bold-161" transform="translate(350.40625 0)"/>
       <use xlink:href="#Sarabun-Bold-f5" transform="translate(390.109375 0)"/>
       <use xlink:href="#Sarabun-Bold-235" transform="translate(445.90625 0)"/>
      </g>
     </g>
    </g>
    <g id="xtick_2">
     <g id="line2d_2">
      <g>
       <use xlink:href="#m43871099d7" x="262.500313" y="298.644" style="stroke: #000000; stroke-width: 0.8"/>
      </g>
     </g>
     <g id="text_2">
      <!-- B_full + Mixup -->
      <g transform="translate(232.472891 315.79) scale(0.095 -0.095)">
       <defs>
        <path id="Sarabun-Bold-3" transform="scale(0.015625)"/>
        <path id="Sarabun-Bold-26c" d="M 1581 1370 
L 301 1370 
L 301 1984 
L 1581 1984 
L 1581 3354 
L 2362 3354 
L 2362 1984 
L 3648 1984 
L 3648 1370 
L 2362 1370 
L 2362 0 
L 1581 0 
L 1581 1370 
z
" transform="scale(0.015625)"/>
        <path id="Sarabun-Bold-65" d="M 4787 4480 
L 4787 0 
L 3878 0 
L 3878 2637 
L 2938 0 
L 2285 0 
L 1344 2637 
L 1344 0 
L 435 0 
L 435 4480 
L 1402 4480 
L 2611 1018 
L 3821 4480 
L 4787 4480 
z
" transform="scale(0.015625)"/>
        <path id="Sarabun-Bold-11b" d="M 870 3571 
Q 634 3571 493 3702 
Q 352 3834 352 4051 
Q 352 4269 493 4400 
Q 634 4531 870 4531 
Q 1107 4531 1251 4400 
Q 1395 4269 1395 4051 
Q 1395 3834 1254 3702 
Q 1114 3571 870 3571 
z
M 467 3200 
L 1280 3200 
L 1280 0 
L 467 0 
L 467 3200 
z
" transform="scale(0.015625)"/>
        <path id="Sarabun-Bold-197" d="M 1242 1626 
L 173 3200 
L 1075 3200 
L 1664 2253 
L 2253 3200 
L 3155 3200 
L 2093 1626 
L 3245 0 
L 2330 0 
L 1664 1043 
L 998 0 
L 83 0 
L 1242 1626 
z
" transform="scale(0.015625)"/>
        <path id="Sarabun-Bold-15e" d="M 339 2349 
Q 339 2867 314 3200 
L 1082 3200 
Q 1101 3008 1101 2778 
L 1114 2778 
Q 1274 3008 1530 3136 
Q 1786 3264 2099 3264 
Q 2707 3264 3059 2816 
Q 3411 2368 3411 1594 
Q 3411 819 3056 377 
Q 2701 -64 2074 -64 
Q 1766 -64 1529 38 
Q 1293 141 1178 326 
L 1158 326 
L 1158 -1549 
L 339 -1549 
L 339 2349 
z
M 1894 544 
Q 2234 544 2413 822 
Q 2592 1101 2592 1619 
Q 2592 2637 1907 2637 
Q 1574 2637 1366 2441 
Q 1158 2246 1158 1926 
L 1158 1267 
Q 1158 960 1369 752 
Q 1581 544 1894 544 
z
" transform="scale(0.015625)"/>
       </defs>
       <use xlink:href="#Sarabun-Bold-1e"/>
       <use xlink:href="#Sarabun-Bold-243" transform="translate(60.59375 0)"/>
       <use xlink:href="#Sarabun-Bold-10e" transform="translate(96.390625 0)"/>
       <use xlink:href="#Sarabun-Bold-179" transform="translate(134.09375 0)"/>
       <use xlink:href="#Sarabun-Bold-12f" transform="translate(190.1875 0)"/>
       <use xlink:href="#Sarabun-Bold-12f" transform="translate(220.28125 0)"/>
       <use xlink:href="#Sarabun-Bold-3" transform="translate(250.375 0)"/>
       <use xlink:href="#Sarabun-Bold-26c" transform="translate(273.671875 0)"/>
       <use xlink:href="#Sarabun-Bold-3" transform="translate(335.375 0)"/>
       <use xlink:href="#Sarabun-Bold-65" transform="translate(358.671875 0)"/>
       <use xlink:href="#Sarabun-Bold-11b" transform="translate(440.265625 0)"/>
       <use xlink:href="#Sarabun-Bold-197" transform="translate(467.5625 0)"/>
       <use xlink:href="#Sarabun-Bold-179" transform="translate(519.5625 0)"/>
       <use xlink:href="#Sarabun-Bold-15e" transform="translate(575.65625 0)"/>
      </g>
      <!-- ($\alpha=0.2$) -->
      <g transform="translate(242.597813 328.967094) scale(0.095 -0.095)">
       <defs>
        <path id="DejaVuSans-Oblique-345" d="M 2619 1628 
L 2622 2350 
Q 2625 3088 2069 3091 
Q 1653 3094 1394 2747 
Q 1069 2319 959 1747 
Q 825 1059 994 731 
Q 1169 397 1547 397 
Q 1966 397 2319 1063 
L 2619 1628 
z
M 2166 3578 
Q 3141 3594 3128 2584 
Q 3128 2584 3616 3500 
L 4128 3500 
L 3119 1603 
L 3109 919 
Q 3109 766 3194 638 
Q 3291 488 3391 488 
L 3669 488 
L 3575 0 
L 3228 0 
Q 2934 0 2722 263 
Q 2622 394 2619 669 
Q 2416 334 2066 50 
Q 1900 -81 1453 -78 
Q 722 -72 456 397 
Q 184 884 353 1747 
Q 534 2675 1009 3097 
Q 1544 3569 2166 3578 
z
" transform="scale(0.015625)"/>
        <path id="DejaVuSans-20" d="M 678 2906 
L 4684 2906 
L 4684 2381 
L 678 2381 
L 678 2906 
z
M 678 1631 
L 4684 1631 
L 4684 1100 
L 678 1100 
L 678 1631 
z
" transform="scale(0.015625)"/>
        <path id="DejaVuSans-13" d="M 2034 4250 
Q 1547 4250 1301 3770 
Q 1056 3291 1056 2328 
Q 1056 1369 1301 889 
Q 1547 409 2034 409 
Q 2525 409 2770 889 
Q 3016 1369 3016 2328 
Q 3016 3291 2770 3770 
Q 2525 4250 2034 4250 
z
M 2034 4750 
Q 2819 4750 3233 4129 
Q 3647 3509 3647 2328 
Q 3647 1150 3233 529 
Q 2819 -91 2034 -91 
Q 1250 -91 836 529 
Q 422 1150 422 2328 
Q 422 3509 836 4129 
Q 1250 4750 2034 4750 
z
" transform="scale(0.015625)"/>
        <path id="DejaVuSans-11" d="M 684 794 
L 1344 794 
L 1344 0 
L 684 0 
L 684 794 
z
" transform="scale(0.015625)"/>
        <path id="DejaVuSans-15" d="M 1228 531 
L 3431 531 
L 3431 0 
L 469 0 
L 469 531 
Q 828 903 1448 1529 
Q 2069 2156 2228 2338 
Q 2531 2678 2651 2914 
Q 2772 3150 2772 3378 
Q 2772 3750 2511 3984 
Q 2250 4219 1831 4219 
Q 1534 4219 1204 4116 
Q 875 4013 500 3803 
L 500 4441 
Q 881 4594 1212 4672 
Q 1544 4750 1819 4750 
Q 2544 4750 2975 4387 
Q 3406 4025 3406 3419 
Q 3406 3131 3298 2873 
Q 3191 2616 2906 2266 
Q 2828 2175 2409 1742 
Q 1991 1309 1228 531 
z
" transform="scale(0.015625)"/>
       </defs>
       <use xlink:href="#Sarabun-Bold-234"/>
       <use xlink:href="#DejaVuSans-Oblique-345" transform="translate(35.399963 0)"/>
       <use xlink:href="#DejaVuSans-20" transform="translate(120.800354 0)"/>
       <use xlink:href="#DejaVuSans-13" transform="translate(224.071838 0)"/>
       <use xlink:href="#DejaVuSans-11" transform="translate(287.694885 0)"/>
       <use xlink:href="#DejaVuSans-15" transform="translate(319.481995 0)"/>
       <use xlink:href="#Sarabun-Bold-235" transform="translate(383.105042 0)"/>
      </g>
     </g>
    </g>
    <g id="xtick_3">
     <g id="line2d_3">
      <g>
       <use xlink:href="#m43871099d7" x="408.69866" y="298.644" style="stroke: #000000; stroke-width: 0.8"/>
      </g>
     </g>
     <g id="text_3">
      <!-- B_full + CutMix -->
      <g transform="translate(376.414988 315.79) scale(0.095 -0.095)">
       <defs>
        <path id="Sarabun-Bold-1f" d="M 2272 -64 
Q 1645 -64 1174 217 
Q 704 499 451 1020 
Q 198 1542 198 2240 
Q 198 2938 451 3459 
Q 704 3981 1174 4262 
Q 1645 4544 2278 4544 
Q 2816 4544 3216 4339 
Q 3616 4134 3808 3757 
L 3283 3296 
Q 2944 3808 2291 3808 
Q 1722 3808 1421 3408 
Q 1120 3008 1120 2240 
Q 1120 1478 1414 1075 
Q 1709 672 2266 672 
Q 2957 672 3283 1184 
L 3808 723 
Q 3616 346 3216 141 
Q 2816 -64 2272 -64 
z
" transform="scale(0.015625)"/>
       </defs>
       <use xlink:href="#Sarabun-Bold-1e"/>
       <use xlink:href="#Sarabun-Bold-243" transform="translate(60.59375 0)"/>
       <use xlink:href="#Sarabun-Bold-10e" transform="translate(96.390625 0)"/>
       <use xlink:href="#Sarabun-Bold-179" transform="translate(134.09375 0)"/>
       <use xlink:href="#Sarabun-Bold-12f" transform="translate(190.1875 0)"/>
       <use xlink:href="#Sarabun-Bold-12f" transform="translate(220.28125 0)"/>
       <use xlink:href="#Sarabun-Bold-3" transform="translate(250.375 0)"/>
       <use xlink:href="#Sarabun-Bold-26c" transform="translate(273.671875 0)"/>
       <use xlink:href="#Sarabun-Bold-3" transform="translate(335.375 0)"/>
       <use xlink:href="#Sarabun-Bold-1f" transform="translate(358.671875 0)"/>
       <use xlink:href="#Sarabun-Bold-179" transform="translate(420.671875 0)"/>
       <use xlink:href="#Sarabun-Bold-171" transform="translate(476.765625 0)"/>
       <use xlink:href="#Sarabun-Bold-65" transform="translate(518.765625 0)"/>
       <use xlink:href="#Sarabun-Bold-11b" transform="translate(600.359375 0)"/>
       <use xlink:href="#Sarabun-Bold-197" transform="translate(627.65625 0)"/>
      </g>
      <!-- (prob=0.5) -->
      <g transform="translate(385.731667 328.967094) scale(0.095 -0.095)">
       <defs>
        <path id="Sarabun-Bold-144" d="M 1850 -64 
Q 1075 -64 640 377 
Q 205 819 205 1600 
Q 205 2381 640 2822 
Q 1075 3264 1850 3264 
Q 2624 3264 3062 2822 
Q 3501 2381 3501 1600 
Q 3501 819 3062 377 
Q 2624 -64 1850 -64 
z
M 1850 544 
Q 2240 544 2464 825 
Q 2688 1107 2688 1600 
Q 2688 2093 2464 2374 
Q 2240 2656 1850 2656 
Q 1459 2656 1238 2374 
Q 1018 2093 1018 1600 
Q 1018 1107 1238 825 
Q 1459 544 1850 544 
z
" transform="scale(0.015625)"/>
        <path id="Sarabun-Bold-ee" d="M 2048 -64 
Q 1766 -64 1507 70 
Q 1248 205 1101 422 
L 1088 422 
Q 1088 115 1082 0 
L 314 0 
Q 333 186 333 851 
L 333 4749 
L 1146 4749 
L 1146 2874 
L 1158 2874 
Q 1434 3264 2086 3264 
Q 2701 3264 3049 2835 
Q 3398 2406 3398 1651 
Q 3398 851 3036 393 
Q 2675 -64 2048 -64 
z
M 1888 563 
Q 2227 563 2406 841 
Q 2586 1120 2586 1638 
Q 2586 2131 2406 2393 
Q 2227 2656 1888 2656 
Q 1568 2656 1357 2451 
Q 1146 2246 1146 1933 
L 1146 1274 
Q 1146 954 1347 758 
Q 1549 563 1888 563 
z
" transform="scale(0.015625)"/>
        <path id="Sarabun-Bold-270" d="M 365 2662 
L 3584 2662 
L 3584 1997 
L 365 1997 
L 365 2662 
z
M 365 1280 
L 3584 1280 
L 3584 614 
L 365 614 
L 365 1280 
z
" transform="scale(0.015625)"/>
        <path id="Sarabun-Bold-1f1" d="M 1811 -64 
Q 1011 -64 588 525 
Q 166 1114 166 2240 
Q 166 3366 588 3955 
Q 1011 4544 1811 4544 
Q 2611 4544 3030 3955 
Q 3450 3366 3450 2240 
Q 3450 1114 3030 525 
Q 2611 -64 1811 -64 
z
M 1811 602 
Q 2170 602 2349 1005 
Q 2528 1408 2528 2240 
Q 2528 3078 2352 3478 
Q 2176 3878 1811 3878 
Q 1446 3878 1267 3478 
Q 1088 3078 1088 2240 
Q 1088 1408 1267 1005 
Q 1446 602 1811 602 
z
" transform="scale(0.015625)"/>
        <path id="Sarabun-Bold-223" d="M 934 -58 
Q 698 -58 544 96 
Q 390 250 390 486 
Q 390 730 544 883 
Q 698 1037 934 1037 
Q 1171 1037 1321 883 
Q 1472 730 1472 486 
Q 1472 250 1321 96 
Q 1171 -58 934 -58 
z
" transform="scale(0.015625)"/>
        <path id="Sarabun-Bold-1f6" d="M 1709 -64 
Q 1254 -64 851 128 
Q 448 320 237 634 
L 634 1216 
Q 864 947 1133 806 
Q 1402 666 1683 666 
Q 2042 666 2250 899 
Q 2458 1133 2458 1542 
Q 2458 1920 2275 2137 
Q 2093 2355 1773 2355 
Q 1581 2355 1405 2243 
Q 1229 2131 1139 1946 
L 378 1946 
L 595 4480 
L 3238 4480 
L 3238 3750 
L 1408 3750 
L 1325 2778 
Q 1414 2886 1616 2960 
Q 1818 3034 2016 3034 
Q 2419 3034 2729 2851 
Q 3040 2669 3209 2333 
Q 3379 1997 3379 1555 
Q 3379 1069 3171 704 
Q 2963 339 2585 137 
Q 2208 -64 1709 -64 
z
" transform="scale(0.015625)"/>
       </defs>
       <use xlink:href="#Sarabun-Bold-234"/>
       <use xlink:href="#Sarabun-Bold-15e" transform="translate(35.40625 0)"/>
       <use xlink:href="#Sarabun-Bold-161" transform="translate(91.90625 0)"/>
       <use xlink:href="#Sarabun-Bold-144" transform="translate(130.609375 0)"/>
       <use xlink:href="#Sarabun-Bold-ee" transform="translate(188.515625 0)"/>
       <use xlink:href="#Sarabun-Bold-270" transform="translate(244.3125 0)"/>
       <use xlink:href="#Sarabun-Bold-1f1" transform="translate(306.015625 0)"/>
       <use xlink:href="#Sarabun-Bold-223" transform="translate(362.515625 0)"/>
       <use xlink:href="#Sarabun-Bold-1f6" transform="translate(391.609375 0)"/>
       <use xlink:href="#Sarabun-Bold-235" transform="translate(448.109375 0)"/>
      </g>
     </g>
    </g>
   </g>
   <g id="matplotlib.axis_2">
    <g id="ytick_1">
     <g id="line2d_4">
      <path d="M 50.220312 250.734756 
L 474.780312 250.734756 
" clip-path="url(#p150f44511d)" style="fill: none; stroke-dasharray: 0.8,1.32; stroke-dashoffset: 0; stroke: #b0b0b0; stroke-opacity: 0.5; stroke-width: 0.8"/>
     </g>
     <g id="line2d_5">
      <defs>
       <path id="m06e899b456" d="M 0 0 
L -3.5 0 
" style="stroke: #000000; stroke-width: 0.8"/>
      </defs>
      <g>
       <use xlink:href="#m06e899b456" x="50.220312" y="250.734756" style="stroke: #000000; stroke-width: 0.8"/>
      </g>
     </g>
     <g id="text_4">
      <!-- 0.92 -->
      <g transform="translate(24.2 256.074756) scale(0.1 -0.1)">
       <defs>
        <path id="Sarabun-Regular-1f1" d="M 1760 -64 
Q 1024 -64 633 521 
Q 243 1107 243 2240 
Q 243 3373 633 3958 
Q 1024 4544 1760 4544 
Q 2496 4544 2886 3958 
Q 3277 3373 3277 2240 
Q 3277 1107 2886 521 
Q 2496 -64 1760 -64 
z
M 1760 384 
Q 2214 384 2451 851 
Q 2688 1318 2688 2240 
Q 2688 3162 2451 3629 
Q 2214 4096 1760 4096 
Q 1306 4096 1069 3629 
Q 832 3162 832 2240 
Q 832 1318 1069 851 
Q 1306 384 1760 384 
z
" transform="scale(0.015625)"/>
        <path id="Sarabun-Regular-223" d="M 806 -64 
Q 627 -64 518 54 
Q 410 173 410 358 
Q 410 544 518 659 
Q 627 774 806 774 
Q 986 774 1094 659 
Q 1203 544 1203 358 
Q 1203 173 1094 54 
Q 986 -64 806 -64 
z
" transform="scale(0.015625)"/>
        <path id="Sarabun-Regular-1fa" d="M 621 378 
Q 1280 525 1795 944 
Q 2310 1363 2464 1907 
Q 2355 1779 2144 1692 
Q 1933 1606 1683 1606 
Q 1254 1606 937 1798 
Q 621 1990 454 2326 
Q 288 2662 288 3078 
Q 288 3501 464 3833 
Q 640 4166 963 4355 
Q 1286 4544 1728 4544 
Q 2189 4544 2528 4333 
Q 2867 4122 3052 3731 
Q 3238 3341 3238 2822 
Q 3238 2080 2912 1459 
Q 2586 838 2010 435 
Q 1434 32 704 -77 
L 621 378 
z
M 1728 2067 
Q 2131 2067 2374 2342 
Q 2618 2618 2618 3072 
Q 2618 3520 2378 3789 
Q 2138 4058 1734 4058 
Q 1338 4058 1101 3789 
Q 864 3520 864 3072 
Q 864 2611 1097 2339 
Q 1331 2067 1728 2067 
z
" transform="scale(0.015625)"/>
        <path id="Sarabun-Regular-1f3" d="M 410 506 
Q 870 838 1328 1302 
Q 1786 1766 2106 2291 
Q 2426 2816 2426 3283 
Q 2426 3642 2221 3850 
Q 2016 4058 1664 4058 
Q 1344 4058 1059 3904 
Q 774 3750 608 3494 
L 294 3846 
Q 493 4173 861 4358 
Q 1229 4544 1670 4544 
Q 2298 4544 2662 4208 
Q 3027 3872 3027 3302 
Q 3027 2624 2492 1888 
Q 1958 1152 1184 467 
L 3226 467 
L 3226 0 
L 410 0 
L 410 506 
z
" transform="scale(0.015625)"/>
       </defs>
       <use xlink:href="#Sarabun-Regular-1f1"/>
       <use xlink:href="#Sarabun-Regular-223" transform="translate(55 0)"/>
       <use xlink:href="#Sarabun-Regular-1fa" transform="translate(80.203125 0)"/>
       <use xlink:href="#Sarabun-Regular-1f3" transform="translate(135.203125 0)"/>
      </g>
     </g>
    </g>
    <g id="ytick_2">
     <g id="line2d_6">
      <path d="M 50.220312 202.130588 
L 474.780312 202.130588 
" clip-path="url(#p150f44511d)" style="fill: none; stroke-dasharray: 0.8,1.32; stroke-dashoffset: 0; stroke: #b0b0b0; stroke-opacity: 0.5; stroke-width: 0.8"/>
     </g>
     <g id="line2d_7">
      <g>
       <use xlink:href="#m06e899b456" x="50.220312" y="202.130588" style="stroke: #000000; stroke-width: 0.8"/>
      </g>
     </g>
     <g id="text_5">
      <!-- 0.94 -->
      <g transform="translate(24.2 207.470588) scale(0.1 -0.1)">
       <defs>
        <path id="Sarabun-Regular-1f5" d="M 2240 768 
L 186 768 
L 186 1267 
L 2112 4480 
L 2829 4480 
L 2829 1254 
L 3334 1254 
L 3334 768 
L 2829 768 
L 2829 0 
L 2240 0 
L 2240 768 
z
M 2240 1254 
L 2240 3795 
L 723 1254 
L 2240 1254 
z
" transform="scale(0.015625)"/>
       </defs>
       <use xlink:href="#Sarabun-Regular-1f1"/>
       <use xlink:href="#Sarabun-Regular-223" transform="translate(55 0)"/>
       <use xlink:href="#Sarabun-Regular-1fa" transform="translate(80.203125 0)"/>
       <use xlink:href="#Sarabun-Regular-1f5" transform="translate(135.203125 0)"/>
      </g>
     </g>
    </g>
    <g id="ytick_3">
     <g id="line2d_8">
      <path d="M 50.220312 153.52642 
L 474.780312 153.52642 
" clip-path="url(#p150f44511d)" style="fill: none; stroke-dasharray: 0.8,1.32; stroke-dashoffset: 0; stroke: #b0b0b0; stroke-opacity: 0.5; stroke-width: 0.8"/>
     </g>
     <g id="line2d_9">
      <g>
       <use xlink:href="#m06e899b456" x="50.220312" y="153.52642" style="stroke: #000000; stroke-width: 0.8"/>
      </g>
     </g>
     <g id="text_6">
      <!-- 0.96 -->
      <g transform="translate(24.2 158.86642) scale(0.1 -0.1)">
       <defs>
        <path id="Sarabun-Regular-1f7" d="M 1798 -64 
Q 1338 -64 998 147 
Q 659 358 473 742 
Q 288 1126 288 1632 
Q 288 2336 627 2969 
Q 966 3603 1555 4028 
Q 2144 4454 2848 4557 
L 2906 4102 
Q 2285 3962 1785 3549 
Q 1286 3136 1088 2573 
Q 1184 2701 1389 2787 
Q 1594 2874 1843 2874 
Q 2278 2874 2595 2682 
Q 2912 2490 3075 2157 
Q 3238 1824 3238 1402 
Q 3238 979 3062 646 
Q 2886 314 2563 125 
Q 2240 -64 1798 -64 
z
M 1786 422 
Q 2189 422 2425 688 
Q 2662 954 2662 1408 
Q 2662 1856 2425 2121 
Q 2189 2387 1786 2387 
Q 1389 2387 1149 2121 
Q 909 1856 909 1408 
Q 909 960 1149 691 
Q 1389 422 1786 422 
z
" transform="scale(0.015625)"/>
       </defs>
       <use xlink:href="#Sarabun-Regular-1f1"/>
       <use xlink:href="#Sarabun-Regular-223" transform="translate(55 0)"/>
       <use xlink:href="#Sarabun-Regular-1fa" transform="translate(80.203125 0)"/>
       <use xlink:href="#Sarabun-Regular-1f7" transform="translate(135.203125 0)"/>
      </g>
     </g>
    </g>
    <g id="ytick_4">
     <g id="line2d_10">
      <path d="M 50.220312 104.922252 
L 474.780312 104.922252 
" clip-path="url(#p150f44511d)" style="fill: none; stroke-dasharray: 0.8,1.32; stroke-dashoffset: 0; stroke: #b0b0b0; stroke-opacity: 0.5; stroke-width: 0.8"/>
     </g>
     <g id="line2d_11">
      <g>
       <use xlink:href="#m06e899b456" x="50.220312" y="104.922252" style="stroke: #000000; stroke-width: 0.8"/>
      </g>
     </g>
     <g id="text_7">
      <!-- 0.98 -->
      <g transform="translate(24.2 110.262252) scale(0.1 -0.1)">
       <defs>
        <path id="Sarabun-Regular-1f9" d="M 1760 -64 
Q 1056 -64 656 278 
Q 256 621 256 1222 
Q 256 1619 448 1926 
Q 640 2234 998 2387 
Q 730 2502 570 2780 
Q 410 3059 410 3392 
Q 410 3917 778 4230 
Q 1146 4544 1760 4544 
Q 2374 4544 2742 4230 
Q 3110 3917 3110 3392 
Q 3110 3059 2950 2780 
Q 2790 2502 2522 2387 
Q 2880 2234 3072 1926 
Q 3264 1619 3264 1222 
Q 3264 621 2864 278 
Q 2464 -64 1760 -64 
z
M 1760 2605 
Q 2112 2605 2317 2803 
Q 2522 3002 2522 3334 
Q 2522 3661 2317 3859 
Q 2112 4058 1760 4058 
Q 1408 4058 1203 3859 
Q 998 3661 998 3334 
Q 998 3002 1203 2803 
Q 1408 2605 1760 2605 
z
M 1760 422 
Q 2189 422 2432 656 
Q 2675 890 2675 1299 
Q 2675 1709 2432 1936 
Q 2189 2163 1760 2163 
Q 1331 2163 1088 1936 
Q 845 1709 845 1299 
Q 845 890 1088 656 
Q 1331 422 1760 422 
z
" transform="scale(0.015625)"/>
       </defs>
       <use xlink:href="#Sarabun-Regular-1f1"/>
       <use xlink:href="#Sarabun-Regular-223" transform="translate(55 0)"/>
       <use xlink:href="#Sarabun-Regular-1fa" transform="translate(80.203125 0)"/>
       <use xlink:href="#Sarabun-Regular-1f9" transform="translate(135.203125 0)"/>
      </g>
     </g>
    </g>
    <g id="ytick_5">
     <g id="line2d_12">
      <path d="M 50.220312 56.318084 
L 474.780312 56.318084 
" clip-path="url(#p150f44511d)" style="fill: none; stroke-dasharray: 0.8,1.32; stroke-dashoffset: 0; stroke: #b0b0b0; stroke-opacity: 0.5; stroke-width: 0.8"/>
     </g>
     <g id="line2d_13">
      <g>
       <use xlink:href="#m06e899b456" x="50.220312" y="56.318084" style="stroke: #000000; stroke-width: 0.8"/>
      </g>
     </g>
     <g id="text_8">
      <!-- 1.00 -->
      <g transform="translate(24.2 61.658084) scale(0.1 -0.1)">
       <defs>
        <path id="Sarabun-Regular-1f2" d="M 826 467 
L 1594 467 
L 1594 3789 
L 710 3270 
L 710 3808 
L 1805 4480 
L 2182 4480 
L 2182 467 
L 2944 467 
L 2944 0 
L 826 0 
L 826 467 
z
" transform="scale(0.015625)"/>
       </defs>
       <use xlink:href="#Sarabun-Regular-1f2"/>
       <use xlink:href="#Sarabun-Regular-223" transform="translate(55 0)"/>
       <use xlink:href="#Sarabun-Regular-1f1" transform="translate(80.203125 0)"/>
       <use xlink:href="#Sarabun-Regular-1f1" transform="translate(135.203125 0)"/>
      </g>
     </g>
    </g>
    <g id="text_9">
     <!-- Accuracy -->
     <g transform="translate(17.88 185.725312) rotate(-90) scale(0.1 -0.1)">
      <defs>
       <path id="Sarabun-Bold-4" d="M 2822 742 
L 1280 742 
L 1056 0 
L 96 0 
L 1645 4480 
L 2458 4480 
L 4006 0 
L 3046 0 
L 2822 742 
z
M 2598 1478 
L 2054 3270 
L 1504 1478 
L 2598 1478 
z
" transform="scale(0.015625)"/>
       <path id="Sarabun-Bold-ef" d="M 1766 -64 
Q 1024 -64 598 381 
Q 173 826 173 1600 
Q 173 2381 598 2822 
Q 1024 3264 1766 3264 
Q 2214 3264 2547 3097 
Q 2880 2931 3059 2624 
L 2566 2195 
Q 2445 2406 2243 2521 
Q 2042 2637 1805 2637 
Q 1421 2637 1203 2361 
Q 986 2086 986 1600 
Q 986 1114 1203 838 
Q 1421 563 1805 563 
Q 2042 563 2240 681 
Q 2438 800 2566 1005 
L 3059 576 
Q 2880 269 2547 102 
Q 2214 -64 1766 -64 
z
" transform="scale(0.015625)"/>
       <path id="Sarabun-Bold-198" d="M 3149 3200 
L 1926 -147 
Q 1728 -685 1379 -957 
Q 1030 -1229 544 -1229 
Q 288 -1229 19 -1158 
L 19 -512 
Q 96 -538 211 -557 
Q 326 -576 416 -576 
Q 698 -576 899 -381 
Q 1101 -186 1261 237 
L 70 3200 
L 941 3200 
L 1645 1152 
L 2278 3200 
L 3149 3200 
z
" transform="scale(0.015625)"/>
      </defs>
      <use xlink:href="#Sarabun-Bold-4"/>
      <use xlink:href="#Sarabun-Bold-ef" transform="translate(61.09375 0)"/>
      <use xlink:href="#Sarabun-Bold-ef" transform="translate(110.296875 0)"/>
      <use xlink:href="#Sarabun-Bold-179" transform="translate(159.5 0)"/>
      <use xlink:href="#Sarabun-Bold-161" transform="translate(215.59375 0)"/>
      <use xlink:href="#Sarabun-Bold-d3" transform="translate(255.296875 0)"/>
      <use xlink:href="#Sarabun-Bold-ef" transform="translate(308.203125 0)"/>
      <use xlink:href="#Sarabun-Bold-198" transform="translate(357.40625 0)"/>
     </g>
    </g>
   </g>
   <g id="patch_9">
    <path d="M 50.220312 298.644 
L 50.220312 32.016 
" style="fill: none; stroke: #000000; stroke-width: 0.8; stroke-linejoin: miter; stroke-linecap: square"/>
   </g>
   <g id="patch_10">
    <path d="M 474.780312 298.644 
L 474.780312 32.016 
" style="fill: none; stroke: #000000; stroke-width: 0.8; stroke-linejoin: miter; stroke-linecap: square"/>
   </g>
   <g id="patch_11">
    <path d="M 50.220313 298.644 
L 474.780313 298.644 
" style="fill: none; stroke: #000000; stroke-width: 0.8; stroke-linejoin: miter; stroke-linecap: square"/>
   </g>
   <g id="patch_12">
    <path d="M 50.220313 32.016 
L 474.780313 32.016 
" style="fill: none; stroke: #000000; stroke-width: 0.8; stroke-linejoin: miter; stroke-linecap: square"/>
   </g>
   <g id="text_10">
    <!-- 0.9780 -->
    <g transform="translate(80.44648 104.008706) scale(0.08 -0.08)">
     <defs>
      <path id="Sarabun-Bold-1fa" d="M 538 602 
Q 1075 704 1523 969 
Q 1971 1235 2170 1613 
Q 1952 1523 1734 1523 
Q 1286 1523 947 1715 
Q 608 1907 422 2249 
Q 237 2592 237 3034 
Q 237 3475 429 3817 
Q 621 4160 969 4349 
Q 1318 4538 1779 4538 
Q 2259 4538 2624 4320 
Q 2989 4102 3187 3708 
Q 3386 3315 3386 2790 
Q 3386 2003 3046 1379 
Q 2707 755 2092 371 
Q 1478 -13 678 -96 
L 538 602 
z
M 1779 2195 
Q 2080 2195 2259 2422 
Q 2438 2650 2438 3027 
Q 2438 3386 2259 3597 
Q 2080 3808 1786 3808 
Q 1491 3808 1315 3593 
Q 1139 3379 1139 3027 
Q 1139 2656 1315 2425 
Q 1491 2195 1779 2195 
z
" transform="scale(0.015625)"/>
      <path id="Sarabun-Bold-1f8" d="M 1088 0 
Q 1126 1171 1382 2070 
Q 1638 2970 2227 3750 
L 288 3750 
L 288 4480 
L 3334 4480 
L 3334 3885 
Q 2694 3194 2352 2176 
Q 2010 1158 2010 0 
L 1088 0 
z
" transform="scale(0.015625)"/>
      <path id="Sarabun-Bold-1f9" d="M 1811 -64 
Q 1325 -64 963 102 
Q 602 269 403 569 
Q 205 870 205 1274 
Q 205 1632 403 1936 
Q 602 2240 934 2374 
Q 678 2477 515 2755 
Q 352 3034 352 3328 
Q 352 3693 534 3968 
Q 717 4243 1046 4393 
Q 1376 4544 1811 4544 
Q 2246 4544 2576 4393 
Q 2906 4243 3085 3968 
Q 3264 3693 3264 3328 
Q 3264 3034 3101 2755 
Q 2938 2477 2688 2374 
Q 3021 2240 3216 1936 
Q 3411 1632 3411 1274 
Q 3411 877 3212 573 
Q 3014 269 2652 102 
Q 2291 -64 1811 -64 
z
M 1811 2694 
Q 2054 2694 2204 2848 
Q 2355 3002 2355 3251 
Q 2355 3507 2204 3660 
Q 2054 3814 1811 3814 
Q 1562 3814 1411 3660 
Q 1261 3507 1261 3251 
Q 1261 3002 1411 2848 
Q 1562 2694 1811 2694 
z
M 1811 666 
Q 2125 666 2310 858 
Q 2496 1050 2496 1370 
Q 2496 1683 2310 1872 
Q 2125 2061 1811 2061 
Q 1498 2061 1309 1875 
Q 1120 1690 1120 1370 
Q 1120 1050 1309 858 
Q 1498 666 1811 666 
z
" transform="scale(0.015625)"/>
     </defs>
     <use xlink:href="#Sarabun-Bold-1f1"/>
     <use xlink:href="#Sarabun-Bold-223" transform="translate(56.5 0)"/>
     <use xlink:href="#Sarabun-Bold-1fa" transform="translate(85.59375 0)"/>
     <use xlink:href="#Sarabun-Bold-1f8" transform="translate(142.09375 0)"/>
     <use xlink:href="#Sarabun-Bold-1f9" transform="translate(198.59375 0)"/>
     <use xlink:href="#Sarabun-Bold-1f1" transform="translate(255.09375 0)"/>
    </g>
   </g>
   <g id="text_11">
    <!-- 0.9761 -->
    <g transform="translate(226.644827 108.454086) scale(0.08 -0.08)">
     <defs>
      <path id="Sarabun-Bold-1f7" d="M 1843 -64 
Q 1363 -64 998 150 
Q 634 365 435 758 
Q 237 1152 237 1664 
Q 237 2394 605 3040 
Q 973 3686 1603 4099 
Q 2234 4512 2995 4576 
L 3085 3885 
Q 2579 3802 2160 3542 
Q 1741 3283 1504 2874 
Q 1683 2963 1888 2963 
Q 2586 2963 2986 2553 
Q 3386 2144 3386 1446 
Q 3386 998 3194 656 
Q 3002 314 2653 125 
Q 2304 -64 1843 -64 
z
M 1837 672 
Q 2131 672 2307 886 
Q 2483 1101 2483 1453 
Q 2483 1805 2307 2016 
Q 2131 2227 1837 2227 
Q 1542 2227 1363 2016 
Q 1184 1805 1184 1453 
Q 1184 1094 1363 883 
Q 1542 672 1837 672 
z
" transform="scale(0.015625)"/>
      <path id="Sarabun-Bold-1f2" d="M 749 685 
L 1472 685 
L 1472 3450 
L 640 2957 
L 640 3776 
L 1792 4480 
L 2394 4480 
L 2394 685 
L 3110 685 
L 3110 0 
L 749 0 
L 749 685 
z
" transform="scale(0.015625)"/>
     </defs>
     <use xlink:href="#Sarabun-Bold-1f1"/>
     <use xlink:href="#Sarabun-Bold-223" transform="translate(56.5 0)"/>
     <use xlink:href="#Sarabun-Bold-1fa" transform="translate(85.59375 0)"/>
     <use xlink:href="#Sarabun-Bold-1f8" transform="translate(142.09375 0)"/>
     <use xlink:href="#Sarabun-Bold-1f7" transform="translate(198.59375 0)"/>
     <use xlink:href="#Sarabun-Bold-1f2" transform="translate(255.09375 0)"/>
    </g>
   </g>
   <g id="text_12">
    <!-- 0.9734 -->
    <g transform="translate(372.843174 115.122156) scale(0.08 -0.08)">
     <defs>
      <path id="Sarabun-Bold-1f4" d="M 1766 -58 
Q 1261 -58 870 124 
Q 480 307 282 640 
L 730 1139 
Q 909 928 1184 800 
Q 1459 672 1728 672 
Q 2048 672 2243 854 
Q 2438 1037 2438 1338 
Q 2438 1658 2201 1837 
Q 1965 2016 1549 2016 
L 1165 2016 
L 1165 2669 
L 1542 2669 
Q 1875 2669 2080 2851 
Q 2285 3034 2285 3315 
Q 2285 3552 2131 3680 
Q 1978 3808 1683 3808 
Q 1395 3808 1145 3686 
Q 896 3565 704 3341 
L 275 3846 
Q 506 4166 915 4352 
Q 1325 4538 1798 4538 
Q 2214 4538 2534 4397 
Q 2854 4256 3027 4003 
Q 3200 3750 3200 3418 
Q 3200 3078 3021 2809 
Q 2842 2541 2496 2381 
Q 2931 2227 3145 1952 
Q 3360 1677 3360 1274 
Q 3360 877 3161 576 
Q 2963 275 2601 108 
Q 2240 -58 1766 -58 
z
" transform="scale(0.015625)"/>
      <path id="Sarabun-Bold-1f5" d="M 2099 698 
L 122 698 
L 122 1338 
L 2042 4480 
L 3021 4480 
L 3021 1427 
L 3494 1427 
L 3494 698 
L 3021 698 
L 3021 0 
L 2099 0 
L 2099 698 
z
M 2099 1427 
L 2099 3232 
L 986 1427 
L 2099 1427 
z
" transform="scale(0.015625)"/>
     </defs>
     <use xlink:href="#Sarabun-Bold-1f1"/>
     <use xlink:href="#Sarabun-Bold-223" transform="translate(56.5 0)"/>
     <use xlink:href="#Sarabun-Bold-1fa" transform="translate(85.59375 0)"/>
     <use xlink:href="#Sarabun-Bold-1f8" transform="translate(142.09375 0)"/>
     <use xlink:href="#Sarabun-Bold-1f4" transform="translate(198.59375 0)"/>
     <use xlink:href="#Sarabun-Bold-1f5" transform="translate(255.09375 0)"/>
    </g>
   </g>
   <g id="text_13">
    <!-- 0.9644 -->
    <g transform="translate(127.229951 137.018416) scale(0.08 -0.08)">
     <use xlink:href="#Sarabun-Bold-1f1"/>
     <use xlink:href="#Sarabun-Bold-223" transform="translate(56.5 0)"/>
     <use xlink:href="#Sarabun-Bold-1fa" transform="translate(85.59375 0)"/>
     <use xlink:href="#Sarabun-Bold-1f7" transform="translate(142.09375 0)"/>
     <use xlink:href="#Sarabun-Bold-1f5" transform="translate(198.59375 0)"/>
     <use xlink:href="#Sarabun-Bold-1f5" transform="translate(255.09375 0)"/>
    </g>
   </g>
   <g id="text_14">
    <!-- 0.9492 -->
    <g transform="translate(273.428298 173.827122) scale(0.08 -0.08)">
     <defs>
      <path id="Sarabun-Bold-1f3" d="M 358 666 
Q 787 966 1228 1385 
Q 1670 1805 1984 2291 
Q 2298 2778 2298 3219 
Q 2298 3494 2144 3654 
Q 1990 3814 1722 3814 
Q 1427 3814 1161 3657 
Q 896 3501 730 3238 
L 237 3750 
Q 461 4128 854 4336 
Q 1248 4544 1728 4544 
Q 2426 4544 2826 4201 
Q 3226 3859 3226 3251 
Q 3226 2688 2784 2041 
Q 2342 1395 1581 685 
L 3379 685 
L 3379 0 
L 358 0 
L 358 666 
z
" transform="scale(0.015625)"/>
     </defs>
     <use xlink:href="#Sarabun-Bold-1f1"/>
     <use xlink:href="#Sarabun-Bold-223" transform="translate(56.5 0)"/>
     <use xlink:href="#Sarabun-Bold-1fa" transform="translate(85.59375 0)"/>
     <use xlink:href="#Sarabun-Bold-1f5" transform="translate(142.09375 0)"/>
     <use xlink:href="#Sarabun-Bold-1fa" transform="translate(198.59375 0)"/>
     <use xlink:href="#Sarabun-Bold-1f3" transform="translate(255.09375 0)"/>
    </g>
   </g>
   <g id="text_15">
    <!-- 0.9403 -->
    <g transform="translate(419.626645 195.579664) scale(0.08 -0.08)">
     <use xlink:href="#Sarabun-Bold-1f1"/>
     <use xlink:href="#Sarabun-Bold-223" transform="translate(56.5 0)"/>
     <use xlink:href="#Sarabun-Bold-1fa" transform="translate(85.59375 0)"/>
     <use xlink:href="#Sarabun-Bold-1f5" transform="translate(142.09375 0)"/>
     <use xlink:href="#Sarabun-Bold-1f1" transform="translate(198.59375 0)"/>
     <use xlink:href="#Sarabun-Bold-1f4" transform="translate(255.09375 0)"/>
    </g>
   </g>
   <g id="text_16">
    <!-- Figure 3: Mixup &amp; CutMix Impact on Raw Accuracies -->
    <g transform="translate(122.925312 20.016) scale(0.12 -0.12)">
     <defs>
      <path id="Sarabun-Bold-3d" d="M 435 4480 
L 3443 4480 
L 3443 3744 
L 1357 3744 
L 1357 2547 
L 3302 2547 
L 3302 1811 
L 1357 1811 
L 1357 0 
L 435 0 
L 435 4480 
z
" transform="scale(0.015625)"/>
      <path id="Sarabun-Bold-10f" d="M 3238 3200 
L 3238 128 
Q 3238 -685 2835 -1097 
Q 2432 -1510 1638 -1510 
Q 1267 -1510 937 -1420 
Q 608 -1331 352 -1165 
L 627 -608 
Q 858 -723 1114 -790 
Q 1370 -858 1600 -858 
Q 2035 -858 2246 -586 
Q 2458 -314 2458 237 
L 2458 339 
Q 2330 166 2106 73 
Q 1882 -19 1574 -19 
Q 909 -19 541 416 
Q 173 851 173 1645 
Q 173 2413 525 2838 
Q 877 3264 1517 3264 
Q 2182 3264 2483 2797 
L 2496 2797 
L 2560 3200 
L 3238 3200 
z
M 2426 1798 
Q 2426 2214 2246 2435 
Q 2067 2656 1728 2656 
Q 1370 2656 1178 2390 
Q 986 2125 986 1626 
Q 986 1126 1174 870 
Q 1363 614 1728 614 
Q 2067 614 2246 816 
Q 2426 1018 2426 1389 
L 2426 1798 
z
" transform="scale(0.015625)"/>
      <path id="Sarabun-Bold-fb" d="M 3270 1299 
L 1043 1299 
Q 1146 621 1830 621 
Q 2112 621 2320 717 
Q 2528 813 2726 1037 
L 3168 614 
Q 2982 307 2608 121 
Q 2234 -64 1786 -64 
Q 1037 -64 621 374 
Q 205 813 205 1587 
Q 205 2368 624 2816 
Q 1043 3264 1779 3264 
Q 2483 3264 2876 2822 
Q 3270 2381 3270 1594 
L 3270 1299 
z
M 2470 1894 
Q 2470 2221 2281 2409 
Q 2093 2598 1760 2598 
Q 1459 2598 1273 2403 
Q 1088 2208 1037 1856 
L 2470 1856 
L 2470 1894 
z
" transform="scale(0.015625)"/>
      <path id="Sarabun-Bold-225" d="M 934 2074 
Q 698 2074 544 2227 
Q 390 2381 390 2618 
Q 390 2861 544 3014 
Q 698 3168 934 3168 
Q 1171 3168 1321 3014 
Q 1472 2861 1472 2618 
Q 1472 2381 1321 2227 
Q 1171 2074 934 2074 
z
M 934 -64 
Q 698 -64 544 89 
Q 390 243 390 486 
Q 390 730 544 880 
Q 698 1030 934 1030 
Q 1171 1030 1321 876 
Q 1472 723 1472 486 
Q 1472 243 1321 89 
Q 1171 -64 934 -64 
z
" transform="scale(0.015625)"/>
      <path id="Sarabun-Bold-296" d="M 3763 -64 
Q 3405 205 3226 346 
Q 2643 -64 1901 -64 
Q 1402 -64 1018 109 
Q 634 282 426 592 
Q 218 902 218 1306 
Q 218 1683 445 2009 
Q 672 2336 1075 2554 
Q 762 3072 762 3488 
Q 762 3795 915 4035 
Q 1069 4275 1341 4409 
Q 1613 4544 1965 4544 
Q 2310 4544 2582 4413 
Q 2854 4282 3004 4051 
Q 3155 3821 3155 3520 
Q 3155 2803 2266 2291 
Q 2579 1920 3181 1414 
Q 3354 1734 3405 2170 
L 4192 2170 
Q 4154 1466 3782 922 
L 4269 531 
L 3763 -64 
z
M 1978 3878 
Q 1798 3878 1692 3772 
Q 1587 3667 1587 3482 
Q 1587 3200 1894 2752 
Q 2106 2931 2218 3126 
Q 2330 3322 2330 3507 
Q 2330 3680 2237 3779 
Q 2144 3878 1978 3878 
z
M 1971 678 
Q 2342 678 2637 845 
Q 1965 1427 1542 1926 
Q 1517 1952 1478 2003 
Q 1325 1869 1241 1699 
Q 1158 1530 1158 1350 
Q 1158 1037 1376 857 
Q 1594 678 1971 678 
z
" transform="scale(0.015625)"/>
      <path id="Sarabun-Bold-4a" d="M 576 4480 
L 1491 4480 
L 1491 0 
L 576 0 
L 576 4480 
z
" transform="scale(0.015625)"/>
      <path id="Sarabun-Bold-138" d="M 307 2349 
Q 307 2989 282 3200 
L 998 3200 
Q 1030 2944 1030 2643 
L 1043 2643 
Q 1146 2931 1414 3097 
Q 1683 3264 2042 3264 
Q 2387 3264 2630 3113 
Q 2874 2963 2957 2701 
Q 3085 2963 3347 3113 
Q 3610 3264 3936 3264 
Q 4467 3264 4771 2921 
Q 5075 2579 5075 1978 
L 5075 0 
L 4262 0 
L 4262 1888 
Q 4262 2227 4115 2416 
Q 3968 2605 3712 2605 
Q 3430 2605 3260 2409 
Q 3091 2214 3091 1882 
L 3091 0 
L 2285 0 
L 2285 1862 
Q 2285 2214 2144 2409 
Q 2003 2605 1747 2605 
Q 1472 2605 1296 2397 
Q 1120 2189 1120 1862 
L 1120 0 
L 307 0 
L 307 2349 
z
" transform="scale(0.015625)"/>
      <path id="Sarabun-Bold-8d" d="M 435 4480 
L 2016 4480 
Q 2778 4480 3155 4169 
Q 3533 3859 3533 3232 
Q 3533 2790 3347 2476 
Q 3162 2163 2810 2022 
L 2810 2010 
Q 2931 1920 2998 1840 
Q 3066 1760 3110 1658 
L 3770 0 
L 2790 0 
L 2278 1363 
Q 2202 1568 2080 1635 
Q 1958 1702 1658 1702 
L 1357 1702 
L 1357 0 
L 435 0 
L 435 4480 
z
M 1920 2432 
Q 2272 2432 2454 2608 
Q 2637 2784 2637 3123 
Q 2637 3744 1907 3744 
L 1357 3744 
L 1357 2432 
L 1920 2432 
z
" transform="scale(0.015625)"/>
      <path id="Sarabun-Bold-192" d="M 4442 3200 
L 3622 0 
L 2906 0 
L 2266 2317 
L 1626 0 
L 902 0 
L 83 3200 
L 934 3200 
L 1338 1210 
L 1901 3200 
L 2624 3200 
L 3187 1210 
L 3590 3200 
L 4442 3200 
z
" transform="scale(0.015625)"/>
      <path id="Sarabun-Bold-168" d="M 1350 -64 
Q 934 -64 617 102 
Q 301 269 173 544 
L 678 896 
Q 794 736 973 640 
Q 1152 544 1338 544 
Q 1555 544 1696 656 
Q 1837 768 1837 934 
Q 1837 1069 1734 1149 
Q 1632 1229 1299 1357 
Q 717 1581 480 1811 
Q 243 2042 243 2381 
Q 243 2778 566 3021 
Q 890 3264 1427 3264 
Q 1786 3264 2074 3126 
Q 2362 2989 2541 2733 
L 2067 2381 
Q 1843 2656 1459 2656 
Q 1267 2656 1161 2589 
Q 1056 2522 1056 2394 
Q 1056 2304 1101 2246 
Q 1146 2189 1274 2125 
Q 1402 2061 1683 1952 
Q 2061 1805 2269 1667 
Q 2477 1530 2563 1366 
Q 2650 1203 2650 973 
Q 2650 666 2486 432 
Q 2323 198 2028 67 
Q 1734 -64 1350 -64 
z
" transform="scale(0.015625)"/>
     </defs>
     <use xlink:href="#Sarabun-Bold-3d"/>
     <use xlink:href="#Sarabun-Bold-11b" transform="translate(57.40625 0)"/>
     <use xlink:href="#Sarabun-Bold-10f" transform="translate(84.703125 0)"/>
     <use xlink:href="#Sarabun-Bold-179" transform="translate(140.203125 0)"/>
     <use xlink:href="#Sarabun-Bold-161" transform="translate(196.296875 0)"/>
     <use xlink:href="#Sarabun-Bold-fb" transform="translate(236 0)"/>
     <use xlink:href="#Sarabun-Bold-3" transform="translate(290.203125 0)"/>
     <use xlink:href="#Sarabun-Bold-1f4" transform="translate(313.5 0)"/>
     <use xlink:href="#Sarabun-Bold-225" transform="translate(370 0)"/>
     <use xlink:href="#Sarabun-Bold-3" transform="translate(399.09375 0)"/>
     <use xlink:href="#Sarabun-Bold-65" transform="translate(422.390625 0)"/>
     <use xlink:href="#Sarabun-Bold-11b" transform="translate(503.984375 0)"/>
     <use xlink:href="#Sarabun-Bold-197" transform="translate(531.28125 0)"/>
     <use xlink:href="#Sarabun-Bold-179" transform="translate(583.28125 0)"/>
     <use xlink:href="#Sarabun-Bold-15e" transform="translate(639.375 0)"/>
     <use xlink:href="#Sarabun-Bold-3" transform="translate(695.875 0)"/>
     <use xlink:href="#Sarabun-Bold-296" transform="translate(719.171875 0)"/>
     <use xlink:href="#Sarabun-Bold-3" transform="translate(788.875 0)"/>
     <use xlink:href="#Sarabun-Bold-1f" transform="translate(812.171875 0)"/>
     <use xlink:href="#Sarabun-Bold-179" transform="translate(874.171875 0)"/>
     <use xlink:href="#Sarabun-Bold-171" transform="translate(930.265625 0)"/>
     <use xlink:href="#Sarabun-Bold-65" transform="translate(972.265625 0)"/>
     <use xlink:href="#Sarabun-Bold-11b" transform="translate(1053.859375 0)"/>
     <use xlink:href="#Sarabun-Bold-197" transform="translate(1081.15625 0)"/>
     <use xlink:href="#Sarabun-Bold-3" transform="translate(1133.15625 0)"/>
     <use xlink:href="#Sarabun-Bold-4a" transform="translate(1156.453125 0)"/>
     <use xlink:href="#Sarabun-Bold-138" transform="translate(1188.75 0)"/>
     <use xlink:href="#Sarabun-Bold-15e" transform="translate(1273.34375 0)"/>
     <use xlink:href="#Sarabun-Bold-d3" transform="translate(1329.84375 0)"/>
     <use xlink:href="#Sarabun-Bold-ef" transform="translate(1382.75 0)"/>
     <use xlink:href="#Sarabun-Bold-171" transform="translate(1431.953125 0)"/>
     <use xlink:href="#Sarabun-Bold-3" transform="translate(1473.953125 0)"/>
     <use xlink:href="#Sarabun-Bold-144" transform="translate(1497.25 0)"/>
     <use xlink:href="#Sarabun-Bold-13a" transform="translate(1555.15625 0)"/>
     <use xlink:href="#Sarabun-Bold-3" transform="translate(1611.453125 0)"/>
     <use xlink:href="#Sarabun-Bold-8d" transform="translate(1634.75 0)"/>
     <use xlink:href="#Sarabun-Bold-d3" transform="translate(1694.34375 0)"/>
     <use xlink:href="#Sarabun-Bold-192" transform="translate(1747.25 0)"/>
     <use xlink:href="#Sarabun-Bold-3" transform="translate(1817.953125 0)"/>
     <use xlink:href="#Sarabun-Bold-4" transform="translate(1841.25 0)"/>
     <use xlink:href="#Sarabun-Bold-ef" transform="translate(1902.34375 0)"/>
     <use xlink:href="#Sarabun-Bold-ef" transform="translate(1951.546875 0)"/>
     <use xlink:href="#Sarabun-Bold-179" transform="translate(2000.75 0)"/>
     <use xlink:href="#Sarabun-Bold-161" transform="translate(2056.84375 0)"/>
     <use xlink:href="#Sarabun-Bold-d3" transform="translate(2096.546875 0)"/>
     <use xlink:href="#Sarabun-Bold-ef" transform="translate(2149.453125 0)"/>
     <use xlink:href="#Sarabun-Bold-11b" transform="translate(2198.65625 0)"/>
     <use xlink:href="#Sarabun-Bold-fb" transform="translate(2225.953125 0)"/>
     <use xlink:href="#Sarabun-Bold-168" transform="translate(2282.15625 0)"/>
    </g>
   </g>
   <g id="legend_1">
    <g id="patch_13">
     <path d="M 372.813516 294.394 
L 468.830312 294.394 
Q 470.530312 294.394 470.530312 292.694 
L 470.530312 262.858734 
Q 470.530312 261.158734 468.830312 261.158734 
L 372.813516 261.158734 
Q 371.113516 261.158734 371.113516 262.858734 
L 371.113516 292.694 
Q 371.113516 294.394 372.813516 294.394 
z
" style="fill: #ffffff; opacity: 0.9; stroke: #cccccc; stroke-linejoin: miter"/>
    </g>
    <g id="patch_14">
     <path d="M 374.513516 273.636734 
L 391.513516 273.636734 
L 391.513516 267.686734 
L 374.513516 267.686734 
z
" style="fill: #2b5c8f; opacity: 0.95"/>
    </g>
    <g id="text_17">
     <!-- Top-1 Accuracy -->
     <g transform="translate(398.313516 273.636734) scale(0.085 -0.085)">
      <defs>
       <path id="Sarabun-Regular-9e" d="M 1491 4019 
L 109 4019 
L 109 4480 
L 3456 4480 
L 3456 4019 
L 2080 4019 
L 2080 0 
L 1491 0 
L 1491 4019 
z
" transform="scale(0.015625)"/>
       <path id="Sarabun-Regular-144" d="M 1779 -64 
Q 1306 -64 957 137 
Q 608 339 419 716 
Q 230 1094 230 1600 
Q 230 2106 419 2483 
Q 608 2861 957 3062 
Q 1306 3264 1779 3264 
Q 2496 3264 2915 2816 
Q 3334 2368 3334 1600 
Q 3334 832 2915 384 
Q 2496 -64 1779 -64 
z
M 1779 352 
Q 2253 352 2521 685 
Q 2790 1018 2790 1600 
Q 2790 2182 2521 2515 
Q 2253 2848 1779 2848 
Q 1312 2848 1043 2515 
Q 774 2182 774 1600 
Q 774 1018 1043 685 
Q 1312 352 1779 352 
z
" transform="scale(0.015625)"/>
       <path id="Sarabun-Regular-15e" d="M 403 2394 
Q 403 2803 378 3200 
L 877 3200 
Q 896 2963 896 2694 
L 909 2694 
Q 1043 2950 1324 3107 
Q 1606 3264 1933 3264 
Q 2554 3264 2906 2822 
Q 3258 2381 3258 1600 
Q 3258 1094 3091 720 
Q 2925 346 2621 141 
Q 2317 -64 1914 -64 
Q 1581 -64 1331 64 
Q 1082 192 966 422 
L 947 422 
L 947 -1549 
L 403 -1549 
L 403 2394 
z
M 1830 352 
Q 2240 352 2477 694 
Q 2714 1037 2714 1619 
Q 2714 2202 2483 2515 
Q 2253 2829 1837 2829 
Q 1446 2829 1196 2573 
Q 947 2317 947 1920 
L 947 1338 
Q 947 896 1190 624 
Q 1434 352 1830 352 
z
" transform="scale(0.015625)"/>
       <path id="Sarabun-Regular-23c" d="M 211 1901 
L 1965 1901 
L 1965 1504 
L 211 1504 
L 211 1901 
z
" transform="scale(0.015625)"/>
       <path id="Sarabun-Regular-3" transform="scale(0.015625)"/>
       <path id="Sarabun-Regular-4" d="M 2778 966 
L 1037 966 
L 736 0 
L 109 0 
L 1632 4480 
L 2182 4480 
L 3706 0 
L 3078 0 
L 2778 966 
z
M 2624 1446 
L 1907 3744 
L 1190 1446 
L 2624 1446 
z
" transform="scale(0.015625)"/>
       <path id="Sarabun-Regular-ef" d="M 1715 -64 
Q 1005 -64 611 374 
Q 218 813 218 1600 
Q 218 2387 611 2825 
Q 1005 3264 1715 3264 
Q 2118 3264 2428 3107 
Q 2739 2950 2918 2656 
L 2592 2362 
Q 2451 2579 2224 2704 
Q 1997 2829 1734 2829 
Q 1280 2829 1021 2505 
Q 762 2182 762 1600 
Q 762 1024 1021 697 
Q 1280 371 1734 371 
Q 1997 371 2224 496 
Q 2451 621 2592 838 
L 2918 544 
Q 2739 250 2428 93 
Q 2118 -64 1715 -64 
z
" transform="scale(0.015625)"/>
       <path id="Sarabun-Regular-179" d="M 1510 -64 
Q 960 -64 675 294 
Q 390 653 390 1350 
L 390 3200 
L 934 3200 
L 934 1344 
Q 934 371 1626 371 
Q 1894 371 2112 508 
Q 2330 646 2451 892 
Q 2573 1139 2573 1446 
L 2573 3200 
L 3117 3200 
L 3117 678 
Q 3117 358 3174 0 
L 2675 0 
Q 2618 282 2611 570 
L 2592 570 
Q 2451 275 2160 105 
Q 1869 -64 1510 -64 
z
" transform="scale(0.015625)"/>
       <path id="Sarabun-Regular-161" d="M 429 2419 
Q 429 2963 410 3200 
L 915 3200 
Q 941 2944 941 2637 
L 941 2573 
L 960 2573 
Q 1082 2906 1350 3085 
Q 1619 3264 1984 3264 
Q 2086 3264 2170 3245 
L 2170 2797 
Q 2086 2816 1946 2816 
Q 1677 2816 1453 2653 
Q 1229 2490 1101 2208 
Q 973 1926 973 1594 
L 973 0 
L 429 0 
L 429 2419 
z
" transform="scale(0.015625)"/>
       <path id="Sarabun-Regular-d3" d="M 1331 -64 
Q 858 -64 557 211 
Q 256 486 256 922 
Q 256 1402 617 1664 
Q 979 1926 1645 1926 
L 2304 1926 
L 2304 2093 
Q 2304 2451 2115 2640 
Q 1926 2829 1568 2829 
Q 1280 2829 1040 2710 
Q 800 2592 640 2368 
L 365 2701 
Q 582 2976 896 3120 
Q 1210 3264 1594 3264 
Q 2195 3264 2521 2969 
Q 2848 2675 2848 2125 
L 2848 621 
Q 2848 371 2925 0 
L 2451 0 
Q 2394 147 2368 448 
L 2355 448 
Q 2176 198 1913 67 
Q 1651 -64 1331 -64 
z
M 1414 365 
Q 1658 365 1862 457 
Q 2067 550 2185 710 
Q 2304 870 2304 1062 
L 2304 1536 
L 1626 1536 
Q 1222 1536 1004 1376 
Q 787 1216 787 922 
Q 787 666 956 515 
Q 1126 365 1414 365 
z
" transform="scale(0.015625)"/>
       <path id="Sarabun-Regular-198" d="M 2886 3200 
L 1728 -58 
Q 1286 -1293 365 -1293 
Q 198 -1293 6 -1248 
L 6 -832 
Q 122 -870 288 -870 
Q 614 -870 844 -633 
Q 1075 -397 1286 166 
L 96 3200 
L 678 3200 
L 1536 749 
L 2298 3200 
L 2886 3200 
z
" transform="scale(0.015625)"/>
      </defs>
      <use xlink:href="#Sarabun-Regular-9e"/>
      <use xlink:href="#Sarabun-Regular-144" transform="translate(47.796875 0)"/>
      <use xlink:href="#Sarabun-Regular-15e" transform="translate(103.5 0)"/>
      <use xlink:href="#Sarabun-Regular-23c" transform="translate(158 0)"/>
      <use xlink:href="#Sarabun-Regular-1f2" transform="translate(192 0)"/>
      <use xlink:href="#Sarabun-Regular-3" transform="translate(247 0)"/>
      <use xlink:href="#Sarabun-Regular-4" transform="translate(271.296875 0)"/>
      <use xlink:href="#Sarabun-Regular-ef" transform="translate(327.890625 0)"/>
      <use xlink:href="#Sarabun-Regular-ef" transform="translate(375.1875 0)"/>
      <use xlink:href="#Sarabun-Regular-179" transform="translate(422.484375 0)"/>
      <use xlink:href="#Sarabun-Regular-161" transform="translate(477.6875 0)"/>
      <use xlink:href="#Sarabun-Regular-d3" transform="translate(512.6875 0)"/>
      <use xlink:href="#Sarabun-Regular-ef" transform="translate(564.09375 0)"/>
      <use xlink:href="#Sarabun-Regular-198" transform="translate(611.390625 0)"/>
     </g>
    </g>
    <g id="patch_15">
     <path d="M 374.513516 289.022 
L 391.513516 289.022 
L 391.513516 283.072 
L 374.513516 283.072 
z
" style="fill: #e66101; opacity: 0.95"/>
    </g>
    <g id="text_18">
     <!-- Balanced Accuracy -->
     <g transform="translate(398.313516 289.022) scale(0.085 -0.085)">
      <defs>
       <path id="Sarabun-Regular-1e" d="M 518 4480 
L 1702 4480 
Q 2496 4480 2883 4214 
Q 3270 3949 3270 3405 
Q 3270 3027 3104 2784 
Q 2938 2541 2586 2406 
L 2586 2387 
Q 3034 2266 3242 2000 
Q 3450 1734 3450 1280 
Q 3450 634 3078 317 
Q 2707 0 1952 0 
L 518 0 
L 518 4480 
z
M 1850 2592 
Q 2259 2592 2470 2787 
Q 2682 2982 2682 3360 
Q 2682 3699 2451 3852 
Q 2221 4006 1722 4006 
L 1107 4006 
L 1107 2592 
L 1850 2592 
z
M 1971 474 
Q 2867 474 2867 1293 
Q 2867 1734 2588 1939 
Q 2310 2144 1709 2144 
L 1107 2144 
L 1107 474 
L 1971 474 
z
" transform="scale(0.015625)"/>
       <path id="Sarabun-Regular-12f" d="M 1139 -64 
Q 448 -64 448 749 
L 448 4749 
L 992 4749 
L 992 755 
Q 992 531 1065 438 
Q 1139 346 1318 346 
Q 1459 346 1638 422 
L 1722 96 
Q 1478 -64 1139 -64 
z
" transform="scale(0.015625)"/>
       <path id="Sarabun-Regular-13a" d="M 384 2394 
Q 384 3002 358 3200 
L 864 3200 
Q 890 2989 890 2630 
L 909 2630 
Q 1050 2925 1341 3094 
Q 1632 3264 1990 3264 
Q 2554 3264 2835 2899 
Q 3117 2534 3117 1811 
L 3117 0 
L 2573 0 
L 2573 1818 
Q 2573 2330 2400 2579 
Q 2227 2829 1875 2829 
Q 1606 2829 1388 2691 
Q 1171 2554 1049 2307 
Q 928 2061 928 1754 
L 928 0 
L 384 0 
L 384 2394 
z
" transform="scale(0.015625)"/>
       <path id="Sarabun-Regular-fb" d="M 3085 1389 
L 781 1389 
Q 826 902 1069 649 
Q 1312 397 1741 397 
Q 2317 397 2656 851 
L 2963 557 
Q 2778 262 2448 99 
Q 2118 -64 1722 -64 
Q 1011 -64 620 371 
Q 230 806 230 1594 
Q 230 2374 624 2819 
Q 1018 3264 1709 3264 
Q 2355 3264 2720 2825 
Q 3085 2387 3085 1600 
L 3085 1389 
z
M 2586 1837 
Q 2586 2298 2346 2560 
Q 2106 2822 1683 2822 
Q 1286 2822 1052 2553 
Q 819 2285 781 1792 
L 2586 1792 
L 2586 1837 
z
" transform="scale(0.015625)"/>
       <path id="Sarabun-Regular-f5" d="M 1562 -64 
Q 941 -64 579 397 
Q 218 858 218 1658 
Q 218 2144 384 2505 
Q 550 2867 857 3065 
Q 1165 3264 1574 3264 
Q 2163 3264 2522 2771 
L 2534 2771 
L 2534 4749 
L 3072 4749 
L 3072 806 
Q 3072 211 3091 0 
L 2592 0 
Q 2579 154 2579 506 
L 2566 506 
Q 2419 250 2144 93 
Q 1869 -64 1562 -64 
z
M 1638 371 
Q 2048 371 2288 617 
Q 2528 864 2528 1280 
L 2528 1862 
Q 2528 2310 2285 2579 
Q 2042 2848 1638 2848 
Q 1229 2848 995 2531 
Q 762 2214 762 1645 
Q 762 1050 995 710 
Q 1229 371 1638 371 
z
" transform="scale(0.015625)"/>
      </defs>
      <use xlink:href="#Sarabun-Regular-1e"/>
      <use xlink:href="#Sarabun-Regular-d3" transform="translate(58.90625 0)"/>
      <use xlink:href="#Sarabun-Regular-12f" transform="translate(110.3125 0)"/>
      <use xlink:href="#Sarabun-Regular-d3" transform="translate(139.40625 0)"/>
      <use xlink:href="#Sarabun-Regular-13a" transform="translate(190.8125 0)"/>
      <use xlink:href="#Sarabun-Regular-ef" transform="translate(245.71875 0)"/>
      <use xlink:href="#Sarabun-Regular-fb" transform="translate(293.015625 0)"/>
      <use xlink:href="#Sarabun-Regular-f5" transform="translate(344.8125 0)"/>
      <use xlink:href="#Sarabun-Regular-3" transform="translate(399.015625 0)"/>
      <use xlink:href="#Sarabun-Regular-4" transform="translate(423.3125 0)"/>
      <use xlink:href="#Sarabun-Regular-ef" transform="translate(479.90625 0)"/>
      <use xlink:href="#Sarabun-Regular-ef" transform="translate(527.203125 0)"/>
      <use xlink:href="#Sarabun-Regular-179" transform="translate(574.5 0)"/>
      <use xlink:href="#Sarabun-Regular-161" transform="translate(629.703125 0)"/>
      <use xlink:href="#Sarabun-Regular-d3" transform="translate(664.703125 0)"/>
      <use xlink:href="#Sarabun-Regular-ef" transform="translate(716.109375 0)"/>
      <use xlink:href="#Sarabun-Regular-198" transform="translate(763.40625 0)"/>
     </g>
    </g>
   </g>
  </g>
 </g>
 <defs>
  <clipPath id="p150f44511d">
   <rect x="50.220312" y="32.016" width="424.56" height="266.628"/>
  </clipPath>
 </defs>
</svg>
